#N canvas 1 50 638 749 10;
#X obj 427 193 oggread~;
#X msg 36 251 set open \$1;
#X msg 24 291 open /home/guilherme/Github/webcastPD/cast-help.pd;
#X obj -3 -80 playlist all 400 300 {Helvetica 10 bold} #457782 yellow
black red;
#X msg 465 157 start;
#X obj 427 256 *~ 0.71;
#X obj 480 255 *~ 0.71;
#X obj 427 285 outlet~;
#X obj 480 284 outlet~;
#X obj 477 -87 inlet;
#N canvas 0 0 450 300 (subpatch) 0;
#X coords 0 1 100 -1 200 140 1;
#X restore 100 20 graph;
#X obj 485 45 symbol \$1;
#X msg 485 67 set location \$1;
#X obj 538 285 print cast.player~:;
#X msg 427 156 stop;
#X msg 485 90 location /home/guilherme/Github/webcastPD/music/;
#X msg 446 119 seek \$1;
#X text 593 311 Retorna nova contagem;
#X text 531 253 -3dB para evitar estouros;
#X obj -2 228 t b b s;
#X obj 427 -21 sel 0 1;
#X obj 497 198 bng 15 250 50 0 empty empty empty 17 7 0 10 -262144
-1 -1;
#X obj 446 10 t b b b b;
#X obj 42 357 print READING;
#X obj 667 339 print NEXT MUSIC:;
#X obj 549 195 random 100;
#X floatatom 549 223 5 0 0 0 - - -;
#X obj 483 -57;
#X connect 0 0 5 0;
#X connect 0 1 6 0;
#X connect 0 2 13 0;
#X connect 0 3 21 0;
#X connect 1 0 2 0;
#X connect 2 0 0 0;
#X connect 3 0 19 0;
#X connect 4 0 0 0;
#X connect 5 0 7 0;
#X connect 6 0 8 0;
#X connect 9 0 20 0;
#X connect 11 0 12 0;
#X connect 12 0 15 0;
#X connect 14 0 0 0;
#X connect 15 0 3 0;
#X connect 16 0 3 0;
#X connect 19 0 4 0;
#X connect 19 1 2 0;
#X connect 19 2 1 0;
#X connect 19 2 23 0;
#X connect 20 0 14 0;
#X connect 20 1 22 0;
#X connect 21 0 25 0;
#X connect 22 0 11 0;
#X connect 22 1 25 0;
#X connect 22 2 15 0;
#X connect 22 3 11 0;
#X connect 25 0 26 0;
#X connect 25 0 16 0;
#X connect 26 0 24 0;
