#N canvas 71 77 1209 639 10;
#X obj 1 289 cnv 15 315 60 empty empty Ogg_quality 5 10 0 10 -204786
-66577 0;
#X obj 1 1 cnv 15 315 120 empty empty cast.server~ 5 12 0 14 -233017
-66577 0;
#X symbolatom 47 32 15 0 0 2 IP - -;
#X symbolatom 218 33 15 0 0 2 mountpoint - -;
#X text 138 33 :;
#X text 2 33 http://;
#X text 208 33 /;
#X obj 1 168 cnv 15 315 120 empty empty tags 5 12 0 10 -262130 -66577
0;
#X symbolatom 8 207 10 0 0 2 Artist - #0-artist;
#X symbolatom 77 206 10 0 0 2 Title - #0-title;
#X symbolatom 147 206 10 0 0 2 Performer - #0-performer;
#X symbolatom 216 205 10 0 0 2 Desription - #0-description;
#X symbolatom 8 247 10 0 0 2 Genre - #0-genre;
#X symbolatom 77 246 10 0 0 2 Location - #0-location;
#X symbolatom 147 246 10 0 0 2 Copyrigth - #0-copyright;
#X symbolatom 216 245 10 0 0 2 Contact - #0-contact;
#X floatatom 6 329 10 22050 44100 2 Samplerate #0-initSamplerate #0-samplerate
;
#X floatatom 75 329 5 1 2 2 Channels #0-initChannels #0-channels;
#X floatatom 131 329 5 0 1 2 Quality_factor #0-initQuality #0-quality
;
#X symbolatom 6 68 15 0 0 2 password - -;
#X obj 1 118 cnv 15 315 50 empty empty connection 5 12 0 10 -204800
-66577 0;
#X symbolatom 146 32 10 0 0 2 port - -;
#X msg 98 91 JRoar;
#X msg 160 91 Icecast2;
#X text 6 92 Stream server;
#X msg 9 361 run;
#X obj 10 147 bng 15 250 50 0 empty empty run 17 7 0 10 -4034 -1 -1
;
#X obj 74 146 bng 15 250 50 0 empty empty stop 17 7 0 10 -258113 -1
-1;
#X msg 74 361 disconnect;
#X text 830 271 connect <host> <mountpoint> <port>;
#X msg 578 295 passwd hackme;
#X text 171 413 vorbis <samplerate> <channels> <max.br> <nom.br> <min.br>
;
#X msg 579 208 server 0;
#X msg 637 209 server 1;
#X text 579 173 choose JRoar or old Icecast2 as server type (default)
;
#X msg 578 273 set passwd \$1;
#X obj 583 126 route JRoar Icecast2;
#X obj 695 245 pack s s s;
#X obj 726 215 t b s;
#X obj 769 213 t b s;
#X msg 45 428 print;
#X msg 696 300 connect 127.0.0.1 listen.ogg 8001;
#X obj 9 383 t b b b;
#X msg 695 271 set connect \$1 \$3 \$2;
#X obj 792 16 loadbang;
#X msg 792 37 127.0.0.1;
#X msg 807 61 8001;
#X msg 821 84 listen.ogg;
#X msg 840 107 hackme;
#X obj 679 19 symbol;
#X obj 766 91 symbol;
#X obj 777 129 symbol;
#X obj 707 61 makesymbol;
#X obj 44 501 oggcast~ 2 512;
#X obj 143 147 tgl 15 0 empty empty empty 17 7 0 10 -262144 -1 -1 0
1;
#X floatatom 173 145 5 0 0 0 - - -;
#X obj 101 462 inlet~;
#X obj 157 468 inlet~;
#X obj 321 224 vu 15 120 empty empty -1 -8 0 10 -66577 -1 1 0;
#X obj 269 498 pvu~;
#X obj 315 -20 pvu~;
#X obj 372 223 vu 15 120 empty empty -1 -8 0 10 -66577 -1 1 0;
#X obj 376 -23 pvu~;
#X text 324 199 L;
#X text 376 197 R;
#X connect 2 0 37 0;
#X connect 3 0 39 0;
#X connect 19 0 35 0;
#X connect 21 0 38 0;
#X connect 22 0 36 0;
#X connect 23 0 36 0;
#X connect 25 0 42 0;
#X connect 26 0 25 0;
#X connect 27 0 28 0;
#X connect 28 0 53 0;
#X connect 30 0 53 0;
#X connect 32 0 53 0;
#X connect 33 0 53 0;
#X connect 35 0 30 0;
#X connect 36 0 32 0;
#X connect 36 1 33 0;
#X connect 37 0 43 0;
#X connect 38 0 37 0;
#X connect 38 1 37 1;
#X connect 39 0 37 0;
#X connect 39 1 37 2;
#X connect 40 0 53 0;
#X connect 41 0 53 0;
#X connect 42 0 41 0;
#X connect 42 1 30 0;
#X connect 42 2 40 0;
#X connect 43 0 41 0;
#X connect 44 0 45 0;
#X connect 44 0 46 0;
#X connect 44 0 47 0;
#X connect 44 0 48 0;
#X connect 45 0 49 0;
#X connect 46 0 52 0;
#X connect 47 0 50 0;
#X connect 48 0 51 0;
#X connect 49 0 2 0;
#X connect 50 0 3 0;
#X connect 51 0 19 0;
#X connect 52 0 21 0;
#X connect 53 0 54 0;
#X connect 53 1 55 0;
#X connect 56 0 53 0;
#X connect 56 0 60 0;
#X connect 57 0 53 1;
#X connect 57 0 62 0;
#X connect 60 0 58 0;
#X connect 62 0 61 0;
#X coords 0 -1 1 1 417 352 1 0 0;
