#N canvas 1 50 638 749 10;
#X obj 36 61 oggcast~ 2 512;
#X obj 37 32 inlet~;
#X obj 116 30 inlet~;
#X obj 36 126 print cast.server.simple~ :;
#X obj 118 157 print cast.server.simple~ (frame):;
#X obj 338 13 inlet;
#X obj 338 37 sel 0 1;
#X msg 257 32 disconnect;
#X msg 367 143 vorbis 44100 2 133 128 96;
#X msg 359 171 print;
#X obj 339 60 t b b b b b;
#X obj 36 188 outlet;
#X msg 412 86 server 0;
#X msg 317 211 connect 10.42.0.1 listen.ogg 8000;
#X msg 392 114 passwd hackme;
#X connect 0 0 3 0;
#X connect 0 0 11 0;
#X connect 0 1 4 0;
#X connect 1 0 0 0;
#X connect 2 0 0 1;
#X connect 5 0 6 0;
#X connect 6 0 7 0;
#X connect 6 1 10 0;
#X connect 7 0 0 0;
#X connect 8 0 0 0;
#X connect 9 0 0 0;
#X connect 10 0 13 0;
#X connect 10 1 9 0;
#X connect 10 2 8 0;
#X connect 10 3 14 0;
#X connect 10 4 12 0;
#X connect 12 0 0 0;
#X connect 13 0 0 0;
#X connect 14 0 0 0;
