#N canvas 643 22 597 423 10;
#X msg 109 165 connect 127.0.0.1 8001 listen.ogg;
#X msg 74 111 disconnect;
#X msg -6 232 server 0;
#X msg 154 249 server 1;
#X msg 377 51 vorbis 44100 2 144 128 96;
#X obj 376 28 loadbang;
#X obj -28 -30 inlet~;
#X obj 18 -30 inlet~;
#X obj 65 -29 inlet;
#X obj -28 346 outlet;
#X obj 53 347 outlet;
#X msg 86 300 passwd hackme;
#X msg 108 135 set connect \$1 \$2 \$3;
#X obj -6 189 route JRoar Icecast2;
#X msg 94 276 set passwd \$4;
#X obj -25 318 oggcast~ \$1 \$2;
#X obj 37 29 route setup stop run;
#X obj 109 66 t b b b;
#X msg 168 83 print;
#X connect 0 0 15 0;
#X connect 1 0 15 0;
#X connect 2 0 15 0;
#X connect 3 0 15 0;
#X connect 4 0 15 0;
#X connect 5 0 4 0;
#X connect 6 0 15 0;
#X connect 7 0 15 1;
#X connect 8 0 16 0;
#X connect 11 0 15 0;
#X connect 12 0 0 0;
#X connect 13 0 2 0;
#X connect 13 1 3 0;
#X connect 14 0 11 0;
#X connect 15 0 9 0;
#X connect 15 1 10 0;
#X connect 16 0 12 0;
#X connect 16 0 13 0;
#X connect 16 0 14 0;
#X connect 16 1 1 0;
#X connect 16 2 17 0;
#X connect 17 0 18 0;
#X connect 17 1 0 0;
#X connect 17 2 11 0;
#X connect 18 0 15 0;
