#N canvas 1 441 638 358 10;
#X obj 37 237 cast.player~ /home/guilherme/Github/labic_patchs/music
;
#X obj 36 283 cast.server.simple~;
#X obj 530 267 dac~;
#X obj 541 204 cast.client.simple~;
#X obj 29 148 bng 15 250 50 0 empty empty empty 17 7 0 10 -262144 -1
-1;
#X obj 101 149 bng 15 250 50 0 empty empty empty 17 7 0 10 -262144
-1 -1;
#X obj 101 180 1;
#X obj 144 146 bng 15 250 50 0 empty empty empty 17 7 0 10 -262144
-1 -1;
#X obj 168 114 bng 15 250 50 0 empty empty empty 17 7 0 10 -262144
-1 -1;
#X obj 168 145 0;
#X msg 29 207 1;
#X msg 144 207 0;
#X obj 30 103 tgl 15 0 empty empty empty 17 7 0 10 -262144 -1 -1 1
1;
#X obj 30 123 sel 0 1;
#X obj 540 169 tgl 15 0 empty empty empty 17 7 0 10 -262144 -1 -1 0
1;
#X obj 29 180 delay 2000;
#X obj 144 179 delay 2000;
#X connect 0 0 1 0;
#X connect 0 1 1 1;
#X connect 3 1 2 1;
#X connect 4 0 15 0;
#X connect 5 0 6 0;
#X connect 6 0 4 0;
#X connect 6 0 1 2;
#X connect 7 0 16 0;
#X connect 8 0 9 0;
#X connect 9 0 7 0;
#X connect 10 0 0 0;
#X connect 11 0 1 2;
#X connect 12 0 13 0;
#X connect 13 0 8 0;
#X connect 13 1 5 0;
#X connect 14 0 3 0;
#X connect 15 0 10 0;
#X connect 16 0 11 0;
#X connect 16 0 0 0;
