#N canvas 739 522 701 378 10;
#X obj 448 233 outlet~;
#X obj 7 33 tgl 15 0 empty \$0-connected Connected 17 7 0 10 -262144
-1 -1 0 1;
#X obj 105 32 hsl 190 15 0 100 0 0 empty empty out_R 4 8 0 10 -262144
-1 -1 0 1;
#X obj 503 229 outlet~;
#X obj 105 15 hsl 190 15 0 100 0 0 empty empty out_L 4 8 0 10 -262144
-1 -1 0 1;
#X obj 238 280 env~;
#X obj 269 282 env~;
#X obj 448 3 inlet params;
#X obj 7 15 bng 15 250 50 0 empty empty reconnet 17 7 0 10 -262144
-1 -1;
#X obj 241 80 t b b b b;
#X obj 316 130 print =========internal server=========: wait connect
;
#X msg 315 194 print;
#X msg 316 172 recover 0;
#X obj 449 161 oggamp~ 0 2 128;
#X connect 5 0 4 0;
#X connect 6 0 2 0;
#X connect 7 0 13 0;
#X connect 8 0 9 0;
#X connect 9 0 11 0;
#X connect 9 1 12 0;
#X connect 9 3 10 0;
#X connect 11 0 13 0;
#X connect 12 0 13 0;
#X connect 13 0 5 0;
#X connect 13 0 0 0;
#X connect 13 1 6 0;
#X connect 13 1 3 0;
#X connect 13 2 1 0;
#X coords 0 -1 1 1 305 50 1 0 0;
