#N canvas 1 50 1278 358 10;
#X obj 449 161 oggamp~;
#N canvas 781 441 450 300 init 0;
#X obj 79 37 loadbang;
#X obj 64 86 \$1;
#X text 91 85 IP;
#X obj 121 84 \$2;
#X text 148 83 port;
#X text 213 82 mountpoint;
#X obj 64 131 s \$0-ip;
#X obj 183 125 s \$0-mountpoint;
#X obj 118 130 s \$0-port;
#X obj 186 83 \$3;
#X connect 0 0 1 0;
#X connect 0 0 3 0;
#X connect 0 0 9 0;
#X connect 1 0 6 0;
#X connect 3 0 8 0;
#X connect 9 0 7 0;
#X restore 385 32 pd init;
#X msg 449 111 connect localhost labicbr.ogg 8001;
#X obj 451 69 pack s s s;
#X obj 448 233 outlet~;
#X obj 11 74 tgl 15 0 empty \$0-connected Connected 17 7 0 10 -262144
-1 -1 0 1;
#X obj 514 177 s \$0-connected;
#X obj 12 52 bng 15 250 50 0 \$0-connect empty Connect 17 7 0 10 -257985
-1 -1;
#X msg 449 90 set connect \$1 \$2 \$3;
#X symbolatom 57 32 15 0 0 2 IP - #0-IP;
#X symbolatom 234 33 10 0 0 2 mountpoint - #0-mountpoint;
#X symbolatom 162 32 10 0 0 2 port - #0-port;
#X obj 451 28 r \$0-IP;
#X obj 459 48 t b s;
#X obj 498 48 t b s;
#X obj 502 28 r \$0-mountpoint;
#X obj 603 29 r \$0-port;
#X text 152 32 :;
#X text 10 32 http://;
#X text 224 33 /;
#X obj 73 51 bng 15 250 50 0 \$0-disconnect empty disconnect 17 7 0
10 -258113 -1 -1;
#X msg 473 136 disconnect;
#X obj 363 74 r \$0-connect;
#X obj 348 96 r \$0-disconnect;
#X obj 503 229 outlet~;
#X obj 449 192 *~ 1;
#X obj 490 193 *~ 1;
#X obj 100 74 vsl 15 128 0 1 0 0 empty empty empty 0 -9 0 10 -262144
-1 -1 0 1;
#X obj 315 239;
#X obj 100 250 pvu~;
#X obj 120 74 vsl 15 128 0 1 0 0 empty empty empty 0 -9 0 10 -262144
-1 -1 11700 1;
#X obj 130 250 pvu~;
#X obj 142 74 vu 15 120 empty empty -1 -8 0 10 -66577 -1 1 0;
#X obj 188 74 vu 15 120 empty empty -1 -8 0 10 -66577 -1 1 0;
#X connect 0 0 25 0;
#X connect 0 1 26 0;
#X connect 0 2 6 0;
#X connect 2 0 0 0;
#X connect 3 0 8 0;
#X connect 8 0 2 0;
#X connect 12 0 3 0;
#X connect 13 0 3 0;
#X connect 13 1 3 1;
#X connect 14 0 3 0;
#X connect 14 1 3 2;
#X connect 15 0 13 0;
#X connect 16 0 14 0;
#X connect 21 0 0 0;
#X connect 22 0 2 0;
#X connect 23 0 21 0;
#X connect 25 0 4 0;
#X connect 25 0 29 0;
#X connect 26 0 24 0;
#X connect 26 0 31 0;
#X connect 27 0 25 1;
#X connect 29 0 32 0;
#X connect 30 0 26 1;
#X connect 31 0 33 0;
#X coords 0 -1 1 1 305 225 1 0 0;
