#N canvas 1 50 638 359 10;
#X obj 31 238 outlet~;
#X msg 47 118 disconnect;
#X obj 86 234 outlet~;
#X obj 32 197 *~ 1;
#X obj 73 198 *~ 1;
#X obj 22 37 inlet;
#X obj 23 64 sel 0 1;
#X msg 160 125 print;
#X obj 112 46 t b b;
#X obj 23 143 oggamp~ 1 2 512;
#X obj 243 242 print cast.client.simple~:;
#X msg 247 219 connected;
#X obj 203 193 == 1;
#X msg 165 74 connect giss.tv radiolabic.ogg 8000;
#X connect 1 0 9 0;
#X connect 3 0 0 0;
#X connect 4 0 2 0;
#X connect 5 0 6 0;
#X connect 6 0 1 0;
#X connect 6 1 8 0;
#X connect 7 0 9 0;
#X connect 8 0 7 0;
#X connect 8 1 13 0;
#X connect 9 0 3 0;
#X connect 9 1 4 0;
#X connect 9 2 12 0;
#X connect 11 0 10 0;
#X connect 12 0 11 0;
#X connect 13 0 9 0;
