#N canvas 1 50 638 749 10;
#X obj 21 655 outlet~;
#X msg 23 511 disconnect;
#X obj 76 652 outlet~;
#X obj 22 614 *~ 1;
#X obj 63 615 *~ 1;
#X obj 22 378 inlet;
#X obj 23 405 sel 0 1;
#X msg 163 502 print;
#X obj 22 581 oggamp~ 1 2 512;
#X obj 191 618 print cast.client.simple~:;
#X msg 193 595 connected;
#X obj 151 569 == 1;
#X obj 85 422 t b b;
#X obj 151 651 == 0;
#X obj 189 672 print cast.client.simple~:;
#X msg 193 649 disconnected;
#X obj 112 444 delay;
#X obj 141 414 \$1;
#X obj 141 390 loadbang;
#X obj 214 549 bng 15 250 50 0 empty empty empty 17 7 0 10 -262144
-1 -1;
#X obj 108 680 outlet;
#X msg 159 479 connect 10.42.0.1 listen.ogg 8000;
#X connect 1 0 8 0;
#X connect 3 0 0 0;
#X connect 4 0 2 0;
#X connect 5 0 6 0;
#X connect 6 0 1 0;
#X connect 6 1 12 0;
#X connect 7 0 8 0;
#X connect 8 0 3 0;
#X connect 8 1 4 0;
#X connect 8 2 11 0;
#X connect 8 2 20 0;
#X connect 10 0 9 0;
#X connect 11 0 10 0;
#X connect 12 0 19 0;
#X connect 12 1 16 0;
#X connect 13 0 15 0;
#X connect 15 0 14 0;
#X connect 16 0 19 0;
#X connect 17 0 16 1;
#X connect 18 0 17 0;
#X connect 19 0 21 0;
#X connect 21 0 8 0;
#X coords 0 749 1 748 50 40 0;
