#N canvas 1 50 638 359 10;
#X obj 477 193 oggread~;
#X msg 484 92 set open \$1;
#X msg 484 120 open /home/guilherme/Github/labic_patchs/music/A_pila_el_arroz.ogg
;
#X obj 412 195 print;
#X obj 567 199 bng 15 250 50 0 empty empty empty 17 7 0 10 -262144
-1 -1;
#X obj 525 221 count;
#X obj -3 -80 playlist all 400 300 {Helvetica 10 bold} #457782 yellow
black red;
#X text 521 -80 Inicia a transmissao;
#X text 522 -19 sistema de feedback;
#X msg 566 29 start;
#X obj 434 257 *~ 0.71;
#X obj 487 256 *~ 0.71;
#X obj 434 286 outlet~;
#X obj 487 285 outlet~;
#X floatatom 549 268 5 0 0 0 - - -;
#X obj 547 -97 inlet;
#N canvas 0 0 450 300 (subpatch) 0;
#X coords 0 1 100 -1 200 140 1;
#X restore 100 20 graph;
#X msg 409 -37 location /home/guilherme/Github/labic_patchs/music;
#X obj 447 -91 symbol \$1;
#X obj 409 -91 t b s;
#X msg 418 -63 set location \$1;
#X obj 275 254 print cast.player~:;
#X msg 528 28 stop;
#X obj 529 4 sel 0 1;
#X obj 474 61 t b s;
#X msg 407 15 seek 0;
#X obj 546 -61 t f b b;
#X connect 0 0 10 0;
#X connect 0 1 11 0;
#X connect 0 2 14 0;
#X connect 0 2 21 0;
#X connect 0 3 4 0;
#X connect 0 3 21 0;
#X connect 1 0 2 0;
#X connect 2 0 0 0;
#X connect 4 0 5 0;
#X connect 6 0 24 0;
#X connect 9 0 0 0;
#X connect 10 0 12 0;
#X connect 11 0 13 0;
#X connect 15 0 26 0;
#X connect 17 0 6 0;
#X connect 18 0 19 0;
#X connect 19 0 17 0;
#X connect 19 1 20 0;
#X connect 20 0 17 0;
#X connect 22 0 0 0;
#X connect 23 0 22 0;
#X connect 23 1 9 0;
#X connect 24 0 2 0;
#X connect 24 1 1 0;
#X connect 25 0 6 0;
#X connect 26 0 23 0;
#X connect 26 1 25 0;
#X connect 26 2 18 0;
