#N canvas 0 22 503 483 10;
#X floatatom 7 37 5 0 0 0 - - -;
#X obj 75 187 line 0 1;
#X obj 75 164 pack 0 50;
#X floatatom 7 77 5 0 0 0 - - -;
#X obj 139 187 line 0 1;
#X obj 139 164 pack 0 50;
#X text 41 37 <--- azimuth: 0 - 360 (degrees);
#X text 40 76 <--- elevation: -40 - 90 (degrees);
#X obj 10 17 hsl 128 15 0 360 0 0 empty empty empty -2 -8 0 10 -262130
-1 -1 0 1;
#X obj 10 59 hsl 128 15 -40 90 0 1 empty empty empty -2 -8 0 10 -262130
-1 -1 11400 0;
#X obj 4 -23 inlet~;
#X obj 4 217 earplug~ 0 0;
#X obj 11 318 outlet~;
#X obj 63 319 outlet~;
#X obj 242 16 hsl 128 15 0 360 0 0 empty empty empty -2 -8 0 10 -262130
-1 -1 0 1;
#X obj 242 58 hsl 128 15 -40 90 0 1 empty empty empty -2 -8 0 10 -262130
-1 -1 11400 0;
#X text 67 -1 L;
#X text 302 -2 R;
#X obj 318 182 line 0 1;
#X obj 318 159 pack 0 50;
#X obj 382 182 line 0 1;
#X obj 382 159 pack 0 50;
#X obj 247 212 earplug~ 0 0;
#X obj 244 -21 inlet~;
#X obj 4 261 +~;
#X obj 88 262 +~;
#X connect 0 0 2 0;
#X connect 1 0 11 1;
#X connect 2 0 1 0;
#X connect 3 0 5 0;
#X connect 4 0 11 2;
#X connect 5 0 4 0;
#X connect 8 0 0 0;
#X connect 9 0 3 0;
#X connect 10 0 11 0;
#X connect 11 0 24 0;
#X connect 11 1 25 0;
#X connect 14 0 19 0;
#X connect 15 0 21 0;
#X connect 18 0 22 1;
#X connect 19 0 18 0;
#X connect 20 0 22 2;
#X connect 21 0 20 0;
#X connect 22 0 24 1;
#X connect 22 1 25 1;
#X connect 23 0 22 0;
#X connect 24 0 12 0;
#X connect 25 0 13 0;
#X coords 0 -1 1 1 385 100 1 0 0;
